# xmcd
#
# Track frame offsets:
#	150
#	4647
#	27225
#	47257
#	57867
#	87707
#	104192
#	127242
#	152417
#	178512
#	201670
#	227175
#	253565
#	275470
#
# Disc length: 4047 seconds
#
# Revision: 1
# Processed by: cddbd v1.5.1PL0 Copyright (c) Steve Scherf et al.
# Submitted via: CDex 1.50Beta5
#
DISCID=c30fcd0e
DTITLE=さまざまなアーティスト - スペースインベーダー大作戦
DYEAR=1900
DGENRE=Dnace
TTITLE0=SKETCH SHOW/BACK IN THE SPACE AGAIN
TTITLE1=KEN ISHII vs FLR/SPACE INVADERS 2003
TTITLE2=DIE RAKETEN vs KAGAMI/GAME OVER
TTITLE3=TOWA TEI vs SWEET ROBOTS AGAINST THE MACHINE/PHOTOGRAPHY?
TTITLE4=MIJK VAN DIJK vs TOBY/DO U KNOW MY UFO MIX
TTITLE5=ELーKT vs THE PERFECT FUTURIST/INVADE YOURSEELF
TTITLE6=TRIPPYーTRAPPERーMUSIC vs ELEKTEL/THE INVADER WHO LOVED ME MIX
TTITLE7=MALAWI ROCKS vs KーSOBAJIMA/THEME FROM SPACE INVADERS
TTITLE8=KO KIMURA vs EーMALE/DEFENDER(EARTH ATTACK REMIX)
TTITLE9=DJ SHINKAWA vs DJ MASE/ELEKTRIX(UFO 500 MIX)
TTITLE10=CHESTER BEATTY vs DJ SHUFFLEMASTER/INVADER WITH THE STARS{N}STRIPES MIX
TTITLE11=SHIN NISHIMURA vs DR SHINGO/25 YEARS DRIVEN
TTITLE12=Q'HEY vs MARCO BAILEY/DON QUIJOTE(AGAINST THE INVADER MIX)
TTITLE13=COーFUSION vs REBUS TAPE/I.N.V
EXTD=
EXTT0=
EXTT1=
EXTT2=
EXTT3=
EXTT4=
EXTT5=
EXTT6=
EXTT7=
EXTT8=
EXTT9=
EXTT10=
EXTT11=
EXTT12=
EXTT13=
PLAYORDER=
